<?xml version="1.0" encoding="UTF-8"?>
<!DOCTYPE svg PUBLIC "-//W3C//DTD SVG 1.1//EN" "http://www.w3.org/Graphics/SVG/1.1/DTD/svg11.dtd">
<!-- Creator: CorelDRAW -->
<svg xmlns="http://www.w3.org/2000/svg" xml:space="preserve" width="6.82666in" height="6.82666in" style="shape-rendering:geometricPrecision; text-rendering:geometricPrecision; image-rendering:optimizeQuality; fill-rule:evenodd; clip-rule:evenodd"
viewBox="0 0 6.82666 6.82666"
 xmlns:xlink="http://www.w3.org/1999/xlink">
 <defs>
  <style type="text/css">
   <![CDATA[
    .fil15 {fill:none}
    .fil12 {fill:#202020}
    .fil0 {fill:#2F2F2F}
    .fil6 {fill:#545454}
    .fil4 {fill:#8C8D8D}
    .fil11 {fill:#919191}
    .fil5 {fill:#A7A7A7}
    .fil7 {fill:#B3B4B4}
    .fil8 {fill:#BCBCBC}
    .fil3 {fill:#BFBFBF}
    .fil2 {fill:#CFCFD0}
    .fil9 {fill:#D1D1D1}
    .fil10 {fill:#F6F6F6}
    .fil14 {fill:#2D2D2D;fill-rule:nonzero}
    .fil1 {fill:#414141;fill-rule:nonzero}
    .fil13 {fill:#474747;fill-rule:nonzero}
   ]]>
  </style>
 </defs>
 <g id="Layer_x0020_1">
  <metadata id="CorelCorpID_0Corel-Layer"/>
  <path class="fil0" d="M0.853335 1.50641l2.3692 0 0 0.174555 0 0.573677 0 0.76478 0 0.208421 0 0.302736 -1.14184 0 0 2.28368c0,0.0286614 -0.0232402,0.0519055 -0.0519016,0.0519055 -0.0286614,0 -0.0519016,-0.0232441 -0.0519016,-0.0519055l0 -2.28368 -1.12356 0 0 -2.02417z"/>
  <path class="fil1" d="M1.76928 5.76236c-0.0286614,0 -0.0519016,0.0232402 -0.0519016,0.0519016 0,0.0286614 0.0232402,0.0519055 0.0519016,0.0519055l0.519016 0c0.0286614,0 0.0519055,-0.0232441 0.0519055,-0.0519055 0,-0.0286614 -0.0232441,-0.0519016 -0.0519055,-0.0519016l-0.519016 0z"/>
  <path class="fil2" d="M1.36321 3.16726l0 -1.08994c0,-0.0286614 -0.0232402,-0.0519016 -0.0519016,-0.0519016 -0.0286614,0 -0.0519016,0.0232402 -0.0519016,0.0519016l0 1.14184c0,0.0286614 0.0232402,0.0519055 0.0519016,0.0519055l1.45325 0c0.0286614,0 0.0519016,-0.0232441 0.0519016,-0.0519055 0,-0.0286614 -0.0232402,-0.0519016 -0.0519016,-0.0519016l-1.40135 0z"/>
  <path class="fil3" d="M1.78364 3.03751c0.0286614,0 0.0519055,-0.0232402 0.0519055,-0.0519055l0 -0.521421c0,-0.0286614 -0.0232441,-0.0519016 -0.0519055,-0.0519016l-0.194583 0c-0.0286614,0 -0.0519016,0.0232402 -0.0519016,0.0519016l0 0.521421c0,0.0286654 0.0232402,0.0519055 0.0519016,0.0519055l0.194583 0z"/>
  <path class="fil4" d="M1.97822 3.03751l0.194583 0c0.0286614,0 0.0519016,-0.0232402 0.0519016,-0.0519055l0 -0.681039c0,-0.0286614 -0.0232402,-0.0519016 -0.0519016,-0.0519016l-0.194583 0c-0.0286614,0 -0.0519016,0.0232402 -0.0519016,0.0519016l0 0.681039c0,0.0286654 0.0232402,0.0519055 0.0519016,0.0519055z"/>
  <path class="fil5" d="M2.36237 3.03751l0.194583 0c0.0286614,0 0.0519016,-0.0232402 0.0519016,-0.0519055l0 -0.778327c0,-0.0286614 -0.0232402,-0.0519055 -0.0519016,-0.0519055l-0.194583 0c-0.0286614,0 -0.0519016,0.0232441 -0.0519016,0.0519055l0 0.778327c0,0.0286654 0.0232402,0.0519055 0.0519016,0.0519055z"/>
  <rect class="fil6" x="4.68497" y="3.87779" width="0.462014" height="1.81888"/>
  <rect class="fil6" x="4.01375" y="3.87779" width="0.462014" height="1.81888"/>
  <path class="fil7" d="M4.8044 1.9482l-0.448067 0c-0.226929,0 -0.412587,0.0889606 -0.412587,0.315882l0 1.63428 1.27324 0 0 -1.63428c0,-0.226933 -0.185657,-0.315882 -0.412587,-0.315882z"/>
  <rect class="fil8" x="4.42047" y="1.67749" width="0.31943" height="0.40749"/>
  <g id="_291557288">
   <path id="_291557504" class="fil8" d="M4.23699 1.5645c0,0 -0.168787,-0.210311 -0.0869055,-0.256031 0,0 0.183583,0.00498425 0.0869055,0.256031z"/>
   <path id="_291557312" class="fil8" d="M4.92373 1.5645c0,0 0.168787,-0.210311 0.0869055,-0.256031 0,0 -0.183583,0.00498425 -0.0869055,0.256031z"/>
  </g>
  <ellipse class="fil9" cx="4.58036" cy="1.35028" rx="0.386809" ry="0.496943"/>
  <path class="fil0" d="M4.93865 1.39373c0,0 -0.0974173,-0.1805 -0.111811,-0.238083 0,0 -0.316709,0.3455 -0.575835,0.0287913l-0.0143976 0.244728c0,0 -0.27352,-0.547043 0.3455,-0.575835 0,0 0.590232,0.0143976 0.356543,0.540398z"/>
  <polygon class="fil10" points="4.56226,2.19231 4.41554,3.11233 4.58036,3.35824 4.74519,3.11233 4.59847,2.19231 4.58036,2.19133 "/>
  <path class="fil11" d="M4.2614 1.95923c0.039248,-0.00625591 0.0832598,-0.0102598 0.129154,-0.0110236l0.0299252 0 0.159882 0.13678 0.159886 -0.13678 0.0299252 0c0.0458937,0.00076378 0.0899055,0.00476772 0.129154,0.0110236l-0.179433 0.269146 -0.139531 -0.143173 -0.139528 0.143173 -0.179433 -0.269146z"/>
  <polygon class="fil10" points="4.51965,2.1475 4.58036,2.0852 4.64107,2.1475 4.58036,2.21124 "/>
  <path class="fil9" d="M2.90709 2.92861c0.00548819,0.0148504 -0.0635512,-0.146213 -0.0635512,-0.146213l-0.249559 0.098437c0,0 -0.136177,0.105012 -0.0329449,0.204614 0,0 0.00437008,-0.0313386 0.0610709,-0.161543l0.103421 -0.0341063c0,0 0.0528071,0.0502677 -0.0572756,0.0872126 0,0 0.0441811,0.071622 0.217858,-0.0237756l0.0209803 -0.024626z"/>
  <path class="fil7" d="M4.21981 1.96244c0,0 -0.10826,-0.0170984 -0.213382,0.0235551 -0.153083,0.0592047 -1.01115,0.618213 -1.3094,0.769894l0.182961 0.227925 1.11511 -0.485539 0.129744 0.015689 0.0949685 -0.551524z"/>
  <path class="fil9" d="M5.33423 3.47745c-0.0134764,0.00195669 0.136555,-0.0120827 0.136555,-0.0120827l0.0282008 0.228949c0,0 -0.0233543,0.146012 -0.141012,0.108969 0,0 0.021878,-0.0161811 0.0969213,-0.112516l-0.0167362 -0.0921299c0,0 -0.0596693,-0.0192283 -0.0423386,0.0791024 0,0 -0.0722559,-0.00394094 -0.0715709,-0.174323l0.00998031 -0.0259685z"/>
  <path class="fil7" d="M4.94093 1.96244c0,0 0.10826,-0.0170984 0.213382,0.0235551 0.109669,0.0424173 0.216433,0.144071 0.216846,0.21424l0.115142 1.28576 -0.182965 0.0145945 -0.137697 -1.00231 -0.12974 0.015689 -0.0949685 -0.551524z"/>
  <path class="fil12" d="M4.68875 5.52893c0.00235039,0.133283 0.00469291,0.266567 0.00704331,0.399854 0,0 0.504783,0.127508 0.501291,-0.0489094 0,0 -0.104803,-0.324874 -0.139732,-0.37902 0,0 -0.176413,-0.117028 -0.368602,0.0280748z"/>
  <path class="fil12" d="M4.46965 5.52893c-0.00234646,0.133283 -0.00468898,0.266567 -0.00703937,0.399854 0,0 -0.504783,0.127508 -0.501291,-0.0489094 0,0 0.104803,-0.324874 0.139732,-0.37902 0,0 0.176413,-0.117028 0.368598,0.0280748z"/>
  <polygon class="fil13" points="5.72418,3.8154 3.58845,3.8154 3.58585,5.97033 5.72157,5.97033 "/>
  <path class="fil14" d="M5.92143 3.99769l-2.53544 0c-0.0286654,0 -0.0519055,-0.0232441 -0.0519055,-0.0519055l0 -0.311409c0,-0.0286654 0.0232402,-0.0519055 0.0519055,-0.0519055l2.53544 0c0.0286614,0 0.0519016,0.0232402 0.0519016,0.0519055l0 0.311409c0,0.0286614 -0.0232402,0.0519055 -0.0519016,0.0519055z"/>
 </g>
 <rect class="fil15" width="6.82666" height="6.82666"/>
</svg>
