<svg xmlns="http://www.w3.org/2000/svg" width="48" height="48.003" viewBox="0 0 48 48.003">
  <g>
    <path d="M38.365,20.792a.728.728,0,0,0-.728.728v.923a.728.728,0,1,0,1.455,0V21.52A.727.727,0,0,0,38.365,20.792Z" fill="#1a171b"/>
    <path d="M38.365,17.1a.727.727,0,0,0-.728.727v.924a.728.728,0,0,0,1.455,0v-.924A.727.727,0,0,0,38.365,17.1Z" fill="#1a171b"/>
    <path d="M38.365,24.486a.727.727,0,0,0-.728.728V25.7a.728.728,0,1,0,1.455,0v-.484A.727.727,0,0,0,38.365,24.486Z" fill="#1a171b"/>
    <path d="M27.853,32.583H.728a.728.728,0,0,0,0,1.455H13.564v4.775l-8.5,7.931a.727.727,0,0,0,.992,1.062l7.505-7v6.473a.728.728,0,0,0,1.455,0V40.8l7.505,7a.721.721,0,0,0,.5.2.726.726,0,0,0,.5-1.257l-8.5-7.931V34.037H27.854a.727.727,0,1,0,0-1.454Z" fill="#1a171b"/>
    <path d="M38.365,12.2A4.161,4.161,0,1,0,34.2,8.04,4.165,4.165,0,0,0,38.365,12.2Zm0-6.867a2.706,2.706,0,1,1-2.707,2.7A2.709,2.709,0,0,1,38.365,5.335Z" fill="#1a171b"/>
    <path d="M43.354,13.843h-8.3a3.31,3.31,0,0,1-2.354-.976L28.58,8.744V.729A.729.729,0,0,0,27.852,0H.727A.728.728,0,0,0,0,.729v28.7a.728.728,0,0,0,.727.727H27.852a.729.729,0,0,0,.728-.727V16.374l3.3,3.313a2.673,2.673,0,0,1,.772,1.871v23.25a3.225,3.225,0,0,0,5.713,2.019,3.225,3.225,0,0,0,5.713-2.019v-12.8a2.648,2.648,0,0,0,1.239.317A2.69,2.69,0,0,0,48,29.642V18.49A4.651,4.651,0,0,0,43.354,13.843ZM27.125,28.7H1.455V1.456h25.67V7.29l-.839-.84a2.687,2.687,0,0,0-3.8,3.8l4.641,4.664Zm15.494,16.1a1.766,1.766,0,0,1-3.532,0V32.714a.728.728,0,1,0-1.455,0V44.808a1.766,1.766,0,0,1-3.531,0V30.158h8.516V44.807Zm3.927-15.164a1.233,1.233,0,0,1-2.465,0V19.17a.728.728,0,1,0-1.455,0V28.7H34.1V21.557a4.079,4.079,0,0,0-1.2-2.9L23.514,9.222A1.232,1.232,0,1,1,25.258,7.48L31.674,13.9a4.75,4.75,0,0,0,3.382,1.4h2.631a.717.717,0,0,0,1.357,0h4.311a3.2,3.2,0,0,1,3.192,3.193V29.643Z" fill="#1a171b"/>
    <path d="M11.7,8.729a.729.729,0,0,0-.728.728V25.551a.728.728,0,0,0,1.456,0V9.457A.728.728,0,0,0,11.7,8.729Z" fill="#1a171b"/>
    <path d="M16.877,4.85a.727.727,0,0,0-.728.727V25.551a.728.728,0,0,0,1.455,0V5.577A.728.728,0,0,0,16.877,4.85Z" fill="#1a171b"/>
    <path d="M21.32,14.305V25.551a.728.728,0,0,0,1.456,0V14.305a.728.728,0,0,0-1.456,0Z" fill="#1a171b"/>
    <path d="M6.533,16.488a.727.727,0,0,0-.728.728v8.336a.728.728,0,0,0,1.455,0V17.216A.727.727,0,0,0,6.533,16.488Z" fill="#1a171b"/>
  </g>
</svg>
